<svg xmlns="http://www.w3.org/2000/svg" viewBox="0 0 179.47 56.47"><g data-name="Layer 2"><g data-name="Layer 1" fill="#fff"><path d="M52 23.83s-2.7 3.26-5.72 3.36a6.41 6.41 0 0 0-.41-3.69c-.6-2.62-2.91-3.65-5.42-3.27-5.17.77-8.71 6.1-9 10.66-.46 6.58 6.26 9 10.89 4.33a15.2 15.2 0 0 0 3.56-6.41c2.59-.23 5.18-2.29 6.62-3.69zM36.88 34.29c-3.12-1.16-1.55-7.23 1.4-10.28a4.51 4.51 0 0 1 4.91-1.45 3 3 0 0 0-2.74 4.07 3.9 3.9 0 0 0 3.08 2.12c-.65 2.49-3.73 6.62-6.65 5.54zM44 26.85c-2.23-.67-1.75-2.52-.93-2.86.59-.25 1.59.31.93 2.86z"/><path d="M54.71 23.45C58.42 19.66 65 12.66 66.94 7.84c.66-1.59.46-3.76-1.59-3.95S60.87 6.14 60 7.11c-4.09 4.37-9.36 12.57-10.72 19.73-.49 2.62-.66 7.11 2.81 7.63.59.09 3.36.6 8.26-3.89L62.17 29l-.5-1s-4.09 4.21-7 3.77c-2.43-.38-1.12-5.29-.67-6.75a5.91 5.91 0 0 1 .71-1.57zm1.36-3.23c1.74-3.8 6-9.94 9-12.34 0 0 .71-.46.42.45S61.38 15.24 56 20.48z"/><path d="M78.38.68C72.8 3.5 66.72 12.21 63 19.31a36.57 36.57 0 0 0-3.92 11.9c-.72 7.13 3.22 13.84 11.08 10.23a11.69 11.69 0 0 0 1.75-1c.32-.22.23-.43 0-.32a3.14 3.14 0 0 1-.58.22c-8.76 1.93-9.08-7.95-7-12.64 1.87-1.92 5.37-5.06 11.35-12 4.65-5.39 6.6-8.85 7.47-10.9C84.89.64 81.82-1.06 78.38.68zm3 4.24c-2.85 6-11.79 16.45-16.11 20.42 2.42-6.05 10.41-18.13 15-21.21 1.2-.79 1.78-.71 1.06.79zm23.54-2.79C97.08 5.3 87.11 24.11 88 32.39a5.28 5.28 0 0 0 5.22 4.92c5.63.47 11.24-5.86 11.3-11 0-2.73-1.69-5.47-4.41-5.23-1.78.15-3 1.39-4.1 2.2l.13-.18c3.13-3.76 7.63-8.33 10.35-12.9a18.19 18.19 0 0 0 2.24-5.3c.46-2.48-1.84-3.71-3.81-2.77zm-6 21c4.44-.67.45 8.59-3.35 11.38-3.11 2.27-4.57-.23-3.71-3.51.74-2.81 3.82-7.39 7.06-7.88zm7.55-16.94c-2.11 5.5-8.89 13.26-12.55 17.51h-.08c2.07-5.8 6.44-13.75 10.93-17.59.77-.67 2.55-2.17 1.7.07zm66.03 20.68c2.35-2.55 1.91-5.94-2.1-6.3-4.34-.38-8.5 3.4-10 7.46s-.87 8.85 4.46 9.35c5.44.29 6.7-4.78 6-4.68-.11 0-.27.15-.51.44-3.25 3.91-8.66 1.75-7-3.77a9.23 9.23 0 0 0 9.15-2.5zm-7.06-1.52c1.33-1.75 3.42-3.39 5-3 2.46.64-1.66 6.21-6.46 5.37a12.35 12.35 0 0 1 1.46-2.37z"/><path d="M149.21 42.87c-4.59-3.82-20.93-2.46-21-2.59a28.12 28.12 0 0 1 5.74-16.18 1.84 1.84 0 0 0-.49-1.58c-.69-.74-2.67-.14-2.67-.14a5.24 5.24 0 0 1-4.25-.75c.34-1.15 1-3.57.46-5.22-1-2.81-5.13-1.88-4.77 2.39a7.51 7.51 0 0 0 1.53 4l.24.31a7.73 7.73 0 0 1-2.62 3.19c0-2.35-1.11-3.05-1.11-3.05-.39-2.23-3.27-3-5-3-4.58.15-7.84 4.79-8.51 9.2-.4 2.61 0 5.45 2.42 7a6.18 6.18 0 0 0 6.05.22c2.92-1.43 5-4.73 5.65-7.85 2.35-.83 4.5-4.57 4.5-4.57a8.81 8.81 0 0 0 3.94 1.12c.36 0-.15.74-.15.74a27.5 27.5 0 0 0-5.62 14.49c-16.64 1.23-42.8 6.35-57.44 5.53-5-.06-16.47-1.12-19.55-6.89.81-1.25 1.94-3.33 1.69-5a1.46 1.46 0 0 0-1.41-1.4 2 2 0 0 0-1.55.78c-1.28 1.6-1 4-.36 5.62-3.59 4.18-9.67 6.91-14.64 6.47C15.38 44.45 18.23 24.28 26 16.34a1.33 1.33 0 0 1 .53-.16c2.72 0 4.72.19 4.86.2 6.85.58 17.9 1.5 22.45-4.54 3.08-4.1 2.68-10.08-5.4-10.25C38.68 1.39 28.32 6.5 22 13.13c-8.3.22-21.74 1.45-22 12.52 0 5.9 6.06 8.7 10.16 5.57.38-.32 0-.36 0-.36-5-.44-6.47-10.65 4.7-13.69a29.28 29.28 0 0 1 4.48-.74c-7.94 10.74-8.3 32.19 9.67 32.62 5.5.14 11.75-2.6 16.57-8.48 4.14 6.48 12.44 8.29 20.46 8.7 19.26 1 38.76-3.5 58-3.83 1.66 6.86 7.83 10.78 15 11a14.74 14.74 0 0 0 8-2c1.75-1.06 4.18-3.33 4.11-5.52-.02-1.82-.57-4.67-1.94-6.05zm-36.73-8.36c-5.15-.33-.65-13 4.13-11.91-2.19 1.48-2 5 1.43 6.27-.56 2.32-3.12 5.76-5.56 5.64zm6.28-7.84c-.58.09-1.45-.77-1.58-1.61s.81-1.52 1.38-.72a2.74 2.74 0 0 1 .2 2.33zm6.34-6.46L125 20a5 5 0 0 1-.53-2.89c.17-.81.78-.89.92.05a9.47 9.47 0 0 1-.29 3.05zm-96.71-6.77C33.21 8.59 43.3 3.93 50.07 3.7c2 0 4.81 0 3.66 2.77-3.45 7.44-17.53 7.71-25.35 7zm17.45 21.91c.23-1.06.76-1.56 1.12-1.48s.54.66.19 1.78A10.73 10.73 0 0 1 46 38a4.66 4.66 0 0 1-.16-2.65zm102.58 13.84c-.66 3.21-5.9 4.74-8.8 4.56-5.17-.33-9.62-3.21-10.84-8.34a1 1 0 0 1 .22 0c4.19 0 15.47-.13 18.66 2.54.34.25.85.81.76 1.24z"/><path d="M90.82 27.32a36.37 36.37 0 0 1-4.28 5.27c-2.08 2-4.13 2.9-3.92-.2a9.92 9.92 0 0 1 1.24-4.12c.38-.62.35-1.09-.6-1.17 1.45-3.7 1.13-6.41-3.59-6.63-10 .09-14.15 16-6.39 16.89 3.64.39 6.1-4.06 6.26-3.94a3.16 3.16 0 0 0 3.75 3.51c3.13-.69 7.49-7.49 8.37-9.89zM82.2 27c-1.67-.32-2.48 1.26-3.5 2.94-1.41 2.33-3.21 4.86-5 4.49-3.71-.92 1.85-12.91 6-12.22 1.18.2.79 2.12 1.08 3.37s1.33 1.29 1.42 1.42zm73.17 1.18c-.77 1.13-5.59 6.94-7.43 6s.14-4.33.66-5.42c.45-.85 0-1.38-.79-1.63a3.52 3.52 0 0 0 .95-2.54c0-3.16-2.19-4.3-4.6-4.19-4.94.23-9.13 5.61-10.15 10.1-.67 3 .41 6.42 4 6.66 2.55.17 4.91-2 5.84-4.21a1.8 1.8 0 0 1 .08-.21c.07 0 .16.11.17.27.11 1.5.83 3.81 3.41 3.88 2.38.06 4.8-3.08 6.1-4.59 2.99-3.58 1.76-4.12 1.76-4.12zM146 26.92c-3.31.3-4.32 7.83-7.61 7.51-1.47-.15-1.55-2.74-.4-5.47 1.26-3 3.61-5.77 5-6.19a1.43 1.43 0 0 1 2.01 1.38c.17 2.15.47 2.25 1 2.75zm-99.49 1.8a9.1 9.1 0 0 0 2.58-1c.12-.87.28-1.55.29-1.6a6.56 6.56 0 0 1-2.86 1.05 2.87 2.87 0 0 0-.01 1.55zM44 26.85a7.48 7.48 0 0 0 2.31.34c0-.28.08-.69.09-1.16a10.53 10.53 0 0 1-2.18-.82 5.52 5.52 0 0 1-.22 1.64zm-.47 1.9a8.88 8.88 0 0 1-1.2 2.54l2.4.52a16.44 16.44 0 0 0 1.17-3 8.73 8.73 0 0 1-2.37-.06zm12.32 4.98A16.16 16.16 0 0 0 59 31.66c.06-.76.18-1.47.19-1.55a8.69 8.69 0 0 1-3.62 1.7zm1.09-14.23c-.31.32-.66.67-1 1a40.49 40.49 0 0 0-1.64 3.75 4.45 4.45 0 0 1 .4-.78c1.41-1.44 3.23-3.34 5-5.41l-.4-1.15c-.7.84-1.5 1.72-2.36 2.59zm8.27 5.86c-.57 1.36-.78 2-.89 2.29 1-1 2.31-2.25 4.2-4.18 0-.42-.12-.86-.2-1.25a54.898 54.898 0 0 1-3.11 3.14zm28.71-1.67h-.08a30.11 30.11 0 0 0-1 3.34 13.39 13.39 0 0 1 3.16-3.8l.12-.18c1-1.25 2.23-2.58 3.45-4l-1.28-.54c-1.6 1.98-3.16 3.77-4.37 5.18z"/><path d="M151.4 32.56c-1.33 1.17-2.67 2-3.46 1.58a1.35 1.35 0 0 1-.72-1.18l-1.9 3a3.15 3.15 0 0 0 2.17.85c1.3 0 2.62-.9 3.75-2a21.34 21.34 0 0 1 .16-2.25z"/><path d="M175.39 5.15h-.16a.5.5 0 0 0 .05.07 2.58 2.58 0 0 1 .45.81c2.8 8.36-7.47 9.87-13.91 9.9.15-.25.29-.5.43-.72 1.06-1.67.94-2.62-1.45-2.2a5.29 5.29 0 0 0-3.52 2.63.22.22 0 0 1-.05.08c-17.18-1.34-37.3-7.68-55.9-9.14-6-.46-16-.67-18.72 6.07a5.36 5.36 0 0 0 1.61 6.53s.25.21.43-.31c2.21-5.39 7.62-7.34 12.92-7.71 15.46-1.1 41.81 5.17 58.27 7.14a.47.47 0 0 0-.05.1c-.17.36-.34.73-.51 1.12-.05.12-.11.24-.16.37-.14.31-.27.63-.4.95-.06.14-.11.26-.16.4l-.45 1.16c0 .07-.05.13-.07.19-.17.46-.34.93-.5 1.39v.1a43.88 43.88 0 0 0-2.11 8.46c-.46 3.86-.2 9.79 4.55 10.81 0 0 .05 0 0-.11a5.66 5.66 0 0 1-.57-1.36c-1.52-5.47 0-11.46 2-16.63.19-.52.4-1 .62-1.56l.24-.56c.14-.34.28-.67.43-1l.27-.61c.14-.31.29-.62.43-.92l.28-.6c.15-.29.29-.58.43-.87l.19-.38c6.79.51 18.53.51 19.16-7.29.2-2.46-1.41-5.71-4.07-6.31z"/><path d="M164 27.75a3 3 0 0 0-.2.4c-.15.34-.33.81-.43 1.12v.1a8.52 8.52 0 0 0 5.28-.08l-.8-2.13a6.23 6.23 0 0 1-3.85.59zM45 39.32a18.15 18.15 0 0 1-3.58 3.17l.84 1.57a26.09 26.09 0 0 0 3.41-3.47 12.62 12.62 0 0 1-.67-1.27zm-.05-.01v.01-.01zM80.77 25.6c.31 1.31 1.34 1.27 1.43 1.42s.78 0 1 .07a12.76 12.76 0 0 0 .6-1.89l-3.17-.38a5.86 5.86 0 0 0 .14.78zm7.17 5.51c-.45.51-.94 1-1.4 1.48A9.9 9.9 0 0 1 84.7 34l-.34 2.42a14.51 14.51 0 0 0 3.72-3.57 6.92 6.92 0 0 1-.14-1.74zM19.38 16.45a26.41 26.41 0 0 0-4 8.29l5.91-.61A22.52 22.52 0 0 1 26 16.34a1.41 1.41 0 0 1 .55-.16c-5.24.06-7.07.24-7.16.25zm109.4 28.96l-4.69.05a13.46 13.46 0 0 0 4.71 7.45l3.64-1.74a10.22 10.22 0 0 1-3.66-5.76zM124 23.13a8.64 8.64 0 0 1-1.43 2.15l1.35 1.13a16 16 0 0 0 1.5-2.14 5.44 5.44 0 0 1-1.42-1.14zm-3.18.79l-2 .95a3 3 0 0 1-.06 1.8h-.22a3.63 3.63 0 0 0 2.83-.35 4.74 4.74 0 0 0 0-.76 4.2 4.2 0 0 0-.55-1.64z"/></g></g></svg>