<svg xmlns="http://www.w3.org/2000/svg" viewBox="0 0 54.56 130.97"><defs><style>.cls-1{fill:#fff;}</style></defs><g id="Capa_2" data-name="Capa 2"><g id="Capa_1-2" data-name="Capa 1"><path class="cls-1" d="M39.62,87.51a3.44,3.44,0,0,0-2.44-1,3.43,3.43,0,0,0-3.44,3.44,3.44,3.44,0,0,0,1,2.44,3.56,3.56,0,0,0,1.09.74,3.38,3.38,0,0,0,1.34.27,3.31,3.31,0,0,0,1.34-.27,3.45,3.45,0,0,0,1.84-1.84,3.31,3.31,0,0,0,.27-1.34,3.38,3.38,0,0,0-.27-1.34A3.56,3.56,0,0,0,39.62,87.51Z"/><polygon class="cls-1" points="35.98 109.55 38.52 109.55 37.28 106.01 35.98 109.55"/><path class="cls-1" d="M34.38,45.71V35.16a4.8,4.8,0,0,0-4.8-4.79H19V40.92a4.79,4.79,0,0,0,4.8,4.79Z"/><path class="cls-1" d="M0,0V131H54.56V0ZM9.76,15.13a5.88,5.88,0,0,1,5.88-5.88H19v3.39a5.88,5.88,0,0,1-5.88,5.88H9.76Zm0,27.07V21.1H30.87A12.78,12.78,0,0,1,43.65,33.88V55H22.54A12.79,12.79,0,0,1,9.76,42.2Zm21,22.88h3.72l3,6.35L40,65.08h3.64l-6,14.73H34l1.69-4.14ZM27.77,76.37v3.37l-12.59,0V65.13h3.36V76.39Zm.84,38.41H24.24l-5.73-8.52v8.52h-4V100.21h4.4l5.71,8.5v-8.54h4ZM25.45,97.27l-.33-6-1.91,6H20l-2-6.21-.37,6.21H14.47l.88-14.63H18.6l3,9.15,2.93-9.15h3.26l.8,14.63Zm14.84,17.42-.62-1.77H34.74l-.64,1.77H30.28l5.34-14.61H39l5,14.61Zm3.62-21.9a7.32,7.32,0,0,1-1.57,2.32A7.76,7.76,0,0,1,40,96.67a7.27,7.27,0,0,1-5.69,0A7.59,7.59,0,0,1,32,95.11a7.29,7.29,0,0,1-1.56-2.32,7.27,7.27,0,0,1,0-5.69,7.3,7.3,0,0,1,3.87-3.88,7.27,7.27,0,0,1,5.69,0,7.4,7.4,0,0,1,2.32,1.56,7.32,7.32,0,0,1,1.57,2.32,7.27,7.27,0,0,1,0,5.69Z"/></g></g></svg>