<svg xmlns="http://www.w3.org/2000/svg" viewBox="0 0 54.56 130.97"><defs><style>.cls-1{fill:#fff;}.cls-2{fill:#020101;}</style></defs><g id="Capa_2" data-name="Capa 2"><g id="Capa_1-2" data-name="Capa 1"><rect class="cls-1" x="-38.2" y="38.2" width="130.97" height="54.56" transform="translate(-38.2 92.76) rotate(-90)"/><path class="cls-2" d="M27.77,79.74l-12.59,0V65.13h3.36V76.39l9.23,0Z"/><path class="cls-2" d="M34,79.81l1.69-4.14-5-10.59h3.72l3,6.35L40,65.08h3.64l-6,14.73Z"/><path class="cls-2" d="M24.55,82.64h3.26l.8,14.63H25.45l-.33-6-1.91,6H20l-2-6.21-.37,6.21H14.47l.88-14.63H18.6l3,9.15Z"/><path class="cls-2" d="M37.17,82.64a7,7,0,0,1,2.85.58,7.4,7.4,0,0,1,2.32,1.56,7.32,7.32,0,0,1,1.57,2.32,7.27,7.27,0,0,1,0,5.69,7.32,7.32,0,0,1-1.57,2.32A7.76,7.76,0,0,1,40,96.67a7.27,7.27,0,0,1-5.69,0A7.59,7.59,0,0,1,32,95.11a7.29,7.29,0,0,1-1.56-2.32,7.27,7.27,0,0,1,0-5.69,7.3,7.3,0,0,1,3.87-3.88A7,7,0,0,1,37.17,82.64Zm0,10.75a3.31,3.31,0,0,0,1.34-.27,3.45,3.45,0,0,0,1.84-1.84,3.31,3.31,0,0,0,.27-1.34,3.38,3.38,0,0,0-.27-1.34,3.56,3.56,0,0,0-.74-1.09,3.44,3.44,0,0,0-2.44-1,3.43,3.43,0,0,0-3.44,3.44,3.44,3.44,0,0,0,1,2.44,3.56,3.56,0,0,0,1.09.74A3.38,3.38,0,0,0,37.18,93.39Z"/><path class="cls-2" d="M24.58,100.17h4v14.61H24.24l-5.73-8.52v8.52h-4V100.21h4.4l5.71,8.5Z"/><path class="cls-2" d="M40.29,114.69l-.62-1.77H34.74l-.64,1.77H30.28l5.34-14.61H39l5,14.61ZM36,109.55h2.54L37.28,106Z"/><path class="cls-2" d="M30.87,21.1H9.76V42.2A12.79,12.79,0,0,0,22.54,55H43.65V33.88A12.78,12.78,0,0,0,30.87,21.1Zm3.51,24.61H23.83A4.79,4.79,0,0,1,19,40.92V30.37H29.58a4.8,4.8,0,0,1,4.8,4.79Z"/><path class="cls-2" d="M15.64,9.25H19a0,0,0,0,1,0,0v3.39a5.88,5.88,0,0,1-5.88,5.88H9.76a0,0,0,0,1,0,0V15.13A5.88,5.88,0,0,1,15.64,9.25Z"/></g></g></svg>