<svg xmlns="http://www.w3.org/2000/svg" viewBox="0 0 501.94 115.81"><defs><style>.cls-1{fill:#fff;}.cls-2{fill:#f7b91a;}.cls-3{fill:#4d9f32;}</style></defs><g id="Capa_2" data-name="Capa 2"><g id="Capa_1-2" data-name="Capa 1"><path class="cls-1" d="M51,115.81H0V30H19.73V96.08H51Z"/><path class="cls-1" d="M76.83,115.81l9.92-24.28L57.45,29.41H79.28L96.91,66.66,112,29.41h21.37l-35.15,86.4Z"/><path class="cls-1" d="M206.66,30H227l5,85.81H212.27l-2.11-35-11.91,35H178.52L165.91,79.38l-2.33,36.43H143.73L149.22,30h20.31l18.8,53.7Z"/><path class="cls-1" d="M393.33,30.11h19.73v85.7H391.69l-28-50v50H343.94V30.35h21.48L393.33,80.2Z"/><path class="cls-1" d="M481.16,115.81l-3.39-10.39h-27l-3.5,10.39H426.4l29.19-85.7h18.68l27.67,85.7ZM457.58,85.69h13.89L464.7,64.91Z"/><path class="cls-2" d="M297.47,30H244V83.44a32.37,32.37,0,0,0,32.37,32.37h53.44V62.37A32.37,32.37,0,0,0,297.47,30Zm8.89,62.33H279.65a12.15,12.15,0,0,1-12.14-12.14V53.48h26.71a12.14,12.14,0,0,1,12.14,12.14Z"/><path class="cls-3" d="M258.93,0h8.59a0,0,0,0,1,0,0V8.59a14.9,14.9,0,0,1-14.9,14.9H244a0,0,0,0,1,0,0V14.9A14.9,14.9,0,0,1,258.93,0Z"/></g></g></svg>