<?xml version="1.0" encoding="utf-8"?>
<!-- Generator: Adobe Illustrator 24.1.2, SVG Export Plug-In . SVG Version: 6.00 Build 0)  -->
<svg version="1.1" xmlns="http://www.w3.org/2000/svg" xmlns:xlink="http://www.w3.org/1999/xlink" x="0px" y="0px"
	 viewBox="0 0 1920 1080" style="enable-background:new 0 0 1920 1080;" xml:space="preserve">
<style type="text/css">
	.st0{fill:#231F20;}
	.st1{fill:#F7D1B2;}
	.st2{fill:none;stroke:#231F20;stroke-width:1.7799;stroke-miterlimit:10;}
	.st3{fill:#E8B18B;}
	.st4{fill:none;stroke:#231F20;stroke-width:5.1882;stroke-miterlimit:10;}
	.st5{fill:#FF97AD;}
	.st6{fill:#FFFFFF;}
	.st7{clip-path:url(#SVGID_2_);fill:none;stroke:#07080B;stroke-width:1.4447;stroke-miterlimit:10;}
	.st8{opacity:0.5;fill:#EABE9D;}
</style>
<g id="face1">
	<path class="st0" d="M941.27,197c0,0,239.61-36.36,226.62,323.61c-12.99,359.97-234.98,329.16-234.98,329.16l9.8-535.2"/>
	<g>
		<path class="st1" d="M692.8,477.62c0-22.32,17.49-40.42,39.07-40.42c21.58,0,39.07,18.1,39.07,40.42
			c0,18.03-11.41,33.3-27.17,38.51c0-0.1,0.02-0.2,0.02-0.31c0-5.47-4.29-9.9-9.57-9.9c-5.29,0-9.57,4.43-9.57,9.9
			c0,0.53,0.05,1.04,0.13,1.55C706.59,513.9,692.8,497.43,692.8,477.62z"/>
	</g>
	<g>
		<path class="st1" d="M733.76,502.6c7.93,0,14.36,6.47,14.36,14.45c0,7.98-6.43,14.45-14.36,14.45c-7.93,0-14.36-6.47-14.36-14.45
			C719.39,509.07,725.82,502.6,733.76,502.6z M733.5,527.09c5.56,0,10.06-4.47,10.06-9.98c0-5.51-4.5-9.98-10.06-9.98
			c-5.56,0-10.06,4.47-10.06,9.98C723.44,522.62,727.95,527.09,733.5,527.09z"/>
	</g>
	<ellipse class="st2" cx="733.5" cy="517.11" rx="10.06" ry="9.98"/>
	<ellipse class="st3" cx="731.87" cy="477.62" rx="20.5" ry="21.21"/>
	<path class="st1" d="M929.07,740.17L929.07,740.17c103.92,0,175.08-86,175.08-190.72V431.68c0-104.72-71.16-188.49-175.08-188.49h0
		c-103.92,0-188.16,84.89-188.16,189.6v117.77C740.9,655.28,825.15,740.17,929.07,740.17z"/>
	<ellipse class="st4" cx="928.19" cy="572.26" rx="15.04" ry="15.56"/>
	<path class="st5" d="M929.07,572.19L929.07,572.19c13.21,0,23.92-10.71,23.92-23.92v-46.74c0-13.21-10.71-23.92-23.92-23.92l0,0
		c-13.21,0-23.92,10.71-23.92,23.92v46.74C905.15,561.48,915.86,572.19,929.07,572.19z"/>
	<path class="st0" d="M929.83,192.76l-155.46,189.9c-16.08,67.7-45.08,96.1-81.56,101.72V445.4
		C692.8,308.73,740.77,192.76,929.83,192.76L929.83,192.76"/>
	<path class="st0" d="M731.64,374.98c8.9-95.63,94.41-182.22,198.18-182.22h0c98.1,0,179.58,67.03,195.72,155.15
		c0.93,5.1,4.76,66.29,5.25,71.52C1003.32,445.59,867.62,399.02,731.64,374.98z"/>
	<g>
		<path class="st0" d="M1062,423.35c2.01,0,4.03-0.64,5.79-1.97c4.53-3.42,5.61-10.11,2.41-14.95
			c-19.68-29.7-47.05-39.65-79.17-28.77c-5.29,1.79-8.22,7.82-6.54,13.47c1.68,5.65,7.33,8.77,12.62,6.98
			c23.94-8.1,41.95-1.52,56.67,20.71C1055.74,421.77,1058.85,423.35,1062,423.35z"/>
	</g>
	<g>
		<path class="st0" d="M791.15,422.28c3.15,0,6.26-1.52,8.3-4.4c8.04-11.3,16.91-18.45,27.13-21.87
			c10.03-3.35,21.65-2.99,34.53,1.07c5.52,1.74,11.31-1.62,12.94-7.51c1.63-5.89-1.52-12.07-7.04-13.81
			c-34.07-10.75-63.17-0.83-84.16,28.68c-3.48,4.89-2.58,11.86,2,15.57C786.74,421.54,788.95,422.28,791.15,422.28z"/>
	</g>
	<g>
		<g>
			<path class="st6" d="M928.67,672.13c-21.09,0-42.17-6.64-62.68-19.92c-13.87-8.98-19.21-30.14-11.93-47.25
				c7.28-17.11,24.42-23.7,38.29-14.72c24.77,16.05,47.86,16.04,72.64,0c13.87-8.98,31.01-2.39,38.29,14.72
				c7.28,17.11,1.94,38.27-11.93,47.25C970.84,665.49,949.75,672.13,928.67,672.13z"/>
		</g>
		<g>
			<defs>
				<path id="SVGID_1_" d="M928.67,672.13c-21.09,0-42.17-6.64-62.68-19.92c-13.87-8.98-19.21-30.14-11.93-47.25
					c7.28-17.11,24.42-23.7,38.29-14.72c24.77,16.05,47.86,16.04,72.64,0c13.87-8.98,31.01-2.39,38.29,14.72
					c7.28,17.11,1.94,38.27-11.93,47.25C970.84,665.49,949.75,672.13,928.67,672.13z"/>
			</defs>
			<clipPath id="SVGID_2_">
				<use xlink:href="#SVGID_1_"  style="overflow:visible;"/>
			</clipPath>
			<path class="st7" d="M888.34,569.69c-4.84,2.5-42.33,129.95-42.33,129.95l50.4,6.66l17.12-125.78l24.24,1.33l19.91,131.95
				l48.25-10l-40.81-134.11"/>
		</g>
	</g>
	<g>
		<path class="st1" d="M701.46,664.01L701.46,664.01c-9.89,2.73-20.21-2.8-23.03-12.34l-22.3-75.24c-2.83-9.54,2.9-19.49,12.8-22.21
			h0c9.89-2.73,20.21,2.8,23.03,12.34l22.3,75.24C717.09,651.33,711.36,661.28,701.46,664.01z"/>
		<path class="st1" d="M755.98,681.57l-31.46,3.3l-7.05-62.47c-0.94-8.38,5.33-15.91,14.02-16.82h0c8.69-0.91,16.5,5.14,17.44,13.52
			L755.98,681.57z"/>
		<path class="st1" d="M672.73,673.31L672.73,673.31c-8.48,5.63-20.08,3.56-25.91-4.62l-46-64.46c-5.83-8.17-3.69-19.36,4.79-24.99
			h0c8.48-5.63,20.08-3.56,25.91,4.62l46,64.46C683.35,656.49,681.21,667.68,672.73,673.31z"/>
		<path class="st1" d="M734.63,759.69l-4.53,2.01c-21.35,9.44-54.44,12.4-70.4-5.6l-10.97-11.7c-16.43-18.53-18.62-45.31-5.32-65.17
			l11.27-16.83l56.15-30.65l17.87,29.75L755,672.83C760.77,697.75,769.08,737.75,734.63,759.69z"/>
		<path class="st8" d="M681.62,712.7L681.62,712.7c-6.9,7.36-18.68,7.94-26.32,1.28l-32.33-28.17c-7.63-6.65-8.23-18.01-1.33-25.38
			h0c6.9-7.36,18.68-7.94,26.32-1.28l32.33,28.17C687.92,693.98,688.52,705.34,681.62,712.7z"/>
		<path class="st8" d="M664.06,736.63L664.06,736.63c-6.33,6.76-17.14,7.28-24.15,1.18l-29.66-25.85
			c-7.01-6.11-7.55-16.53-1.22-23.29l0,0c6.33-6.76,17.14-7.28,24.15-1.18l29.66,25.85C669.85,719.45,670.39,729.88,664.06,736.63z"
			/>
		<path class="st1" d="M677.49,710.96L677.49,710.96c-6.9,7.36-18.68,7.94-26.32,1.28l-32.33-28.17
			c-7.63-6.65-8.23-18.01-1.33-25.38l0,0c6.9-7.36,18.68-7.94,26.32-1.28l32.33,28.17C683.79,692.24,684.39,703.6,677.49,710.96z"/>
		<path class="st1" d="M659.93,734.89L659.93,734.89c-6.33,6.76-17.14,7.28-24.15,1.18l-29.66-25.85
			c-7.01-6.11-7.55-16.53-1.22-23.29h0c6.33-6.76,17.14-7.28,24.15-1.18l29.66,25.85C665.72,717.71,666.26,728.14,659.93,734.89z"/>
		<ellipse class="st1" cx="720.95" cy="683.33" rx="35.75" ry="34.47"/>
	</g>
</g>
<g id="ojo_izq">
	<g>
		<path class="st6" d="M813.61,430.72c17.91-8.56,39.23-6.74,56.17,4.35c10.73,7.03,20.04,19.35,24.65,33.05
			c5.35,15.89,2.86,34.94-5.37,48.89c-8.23,13.96-21.7,22.81-35.72,25.02l0.07-0.11c-2.74,0.71-5.54,1.1-8.39,1.11
			c-13.79,0.04-32.15-1-43.37-10.69c-16.7-14.42-17.24-30.74-18.26-47.42C781.95,461.63,795.7,439.28,813.61,430.72z"/>
	</g>
</g>
<g id="pupila_izq">
	<g>
		<path class="st0" d="M824.52,453.11c10.97-5.09,24.02-4,34.39,2.59c6.57,4.18,12.27,11.5,15.09,19.64
			c3.28,9.44,1.75,20.76-3.29,29.05c-5.04,8.29-13.29,13.56-21.87,14.87l0.04-0.06c-1.68,0.42-3.39,0.65-5.14,0.66
			c-8.44,0.03-19.69-0.6-26.55-6.35c-10.23-8.57-10.55-18.26-11.18-28.18C805.14,471.47,813.55,458.19,824.52,453.11z"/>
	</g>
</g>
<g id="ojo_der">
	<g>
		<path class="st6" d="M988.35,432.19c17.91-8.56,39.23-6.74,56.17,4.35c10.73,7.03,20.04,19.35,24.65,33.05
			c5.35,15.89,2.86,34.94-5.37,48.89c-8.23,13.96-21.7,22.81-35.72,25.02l0.07-0.11c-2.74,0.71-5.54,1.1-8.39,1.11
			c-13.79,0.04-32.15-1-43.37-10.69c-16.7-14.42-17.24-30.74-18.26-47.42C956.69,463.1,970.44,440.75,988.35,432.19z"/>
	</g>
</g>
<g id="pupila_der">
	<g>
		<path class="st0" d="M994.18,454.04c10.97-5.09,24.02-4,34.39,2.59c6.57,4.18,12.27,11.5,15.09,19.64
			c3.28,9.44,1.75,20.76-3.29,29.05c-5.04,8.29-13.29,13.56-21.87,14.87l0.04-0.06c-1.68,0.42-3.39,0.65-5.14,0.66
			c-8.44,0.03-19.69-0.6-26.55-6.35c-10.23-8.57-10.55-18.26-11.18-28.18C974.8,472.41,983.22,459.12,994.18,454.04z"/>
	</g>
</g>
<g id="mofletes">
	
		<ellipse transform="matrix(0.122 -0.9925 0.9925 0.122 198.473 1301.1904)" class="st1" cx="834.69" cy="538.41" rx="23.99" ry="51.99"/>
	
		<ellipse transform="matrix(0.9974 -0.0723 0.0723 0.9974 -36.2766 74.4087)" class="st1" cx="1009.92" cy="538.41" rx="50.24" ry="23.99"/>
</g>
</svg>
