<?xml version="1.0" encoding="utf-8"?>
<!-- Generator: Adobe Illustrator 24.1.2, SVG Export Plug-In . SVG Version: 6.00 Build 0)  -->
<svg version="1.1" xmlns="http://www.w3.org/2000/svg" xmlns:xlink="http://www.w3.org/1999/xlink" x="0px" y="0px"
	 viewBox="0 0 1920 1080" style="enable-background:new 0 0 1920 1080;" xml:space="preserve">
<style type="text/css">
	.st0{fill:#231F20;}
	.st1{fill:#F7D1B2;}
	.st2{fill:none;stroke:#231F20;stroke-width:1.8126;stroke-miterlimit:10;}
	.st3{fill:#E8B18B;}
	.st4{fill:none;stroke:#231F20;stroke-width:5.2836;stroke-miterlimit:10;}
	.st5{fill:#FF97AD;}
	.st6{fill:#FFFFFF;}
</style>
<g id="face1">
	<g>
		<path class="st0" d="M941.86,196.39c0,0,239.63-36.36,226.63,323.61C1155.5,879.97,933.5,849.16,933.5,849.16l9.8-535.2"/>
		<g>
			<path class="st1" d="M693.37,477.01c0-22.32,17.49-40.42,39.07-40.42c21.58,0,39.07,18.1,39.07,40.42
				c0,18.03-11.41,33.3-27.17,38.51c0-0.1,0.02-0.2,0.02-0.31c0-5.47-4.29-9.9-9.57-9.9c-5.29,0-9.57,4.43-9.57,9.9
				c0,0.53,0.05,1.04,0.13,1.55C707.15,513.3,693.37,496.82,693.37,477.01z"/>
		</g>
		<g>
			<path class="st1" d="M734.33,502c7.93,0,14.37,6.47,14.37,14.45c0,7.98-6.43,14.45-14.37,14.45c-7.93,0-14.37-6.47-14.37-14.45
				C719.96,508.46,726.39,502,734.33,502z M734.08,526.48c5.56,0,10.06-4.47,10.06-9.98s-4.5-9.98-10.06-9.98
				c-5.56,0-10.06,4.47-10.06,9.98S728.52,526.48,734.08,526.48z"/>
		</g>
		<ellipse class="st2" cx="734.07" cy="516.5" rx="10.06" ry="9.98"/>
		<ellipse class="st3" cx="732.44" cy="477.01" rx="20.5" ry="21.21"/>
		<path class="st1" d="M929.65,739.56L929.65,739.56c103.93,0,175.09-86,175.09-190.72V431.07c0-104.72-71.16-188.49-175.09-188.49
			h0c-103.93,0-188.18,84.89-188.18,189.6v117.77C741.48,654.67,825.73,739.56,929.65,739.56z"/>
		<g>
			<path class="st3" d="M927.2,641.15c-24.56,0-49.03-10.31-73.27-30.95c-1.99-1.69-2.28-4.74-0.66-6.81
				c1.63-2.07,4.56-2.38,6.55-0.68c45.21,38.48,89.44,38.48,135.23-0.02c2-1.68,4.93-1.36,6.54,0.72c1.61,2.08,1.3,5.13-0.7,6.81
				C976.37,630.84,951.75,641.15,927.2,641.15z"/>
		</g>
		<ellipse class="st4" cx="928.78" cy="591.02" rx="15.04" ry="15.56"/>
		<path class="st5" d="M929.65,590.95L929.65,590.95c13.21,0,23.92-10.71,23.92-23.92v-58.45c0-13.21-10.71-23.92-23.92-23.92l0,0
			c-13.21,0-23.92,10.71-23.92,23.92v58.45C905.73,580.24,916.44,590.95,929.65,590.95z"/>
		<path class="st0" d="M930.41,192.15l-155.47,189.9c-16.08,67.7-45.08,96.1-81.57,101.72v-38.98
			C693.37,308.12,741.34,192.15,930.41,192.15L930.41,192.15"/>
		<path class="st0" d="M732.21,374.37c8.9-95.63,94.41-182.22,198.2-182.22h0c98.11,0,179.59,67.03,195.73,155.15
			c0.93,5.1,4.76,66.29,5.25,71.52C1003.91,444.98,868.2,398.42,732.21,374.37z"/>
		<g>
			<path class="st0" d="M1062.6,422.74c2.01,0,4.03-0.64,5.79-1.97c4.53-3.42,5.61-10.11,2.41-14.95
				c-19.68-29.7-47.06-39.65-79.18-28.77c-5.29,1.79-8.22,7.82-6.54,13.47c1.68,5.65,7.33,8.77,12.62,6.98
				c23.94-8.1,41.95-1.52,56.68,20.71C1056.34,421.16,1059.44,422.74,1062.6,422.74z"/>
		</g>
		<g>
			<path class="st0" d="M791.72,421.67c3.15,0,6.26-1.52,8.3-4.4c8.04-11.3,16.91-18.45,27.13-21.87
				c10.03-3.35,21.65-2.99,34.53,1.07c5.52,1.74,11.31-1.62,12.94-7.51c1.63-5.89-1.52-12.07-7.04-13.81
				c-34.07-10.75-63.18-0.83-84.17,28.68c-3.48,4.89-2.58,11.86,2,15.57C787.32,420.94,789.53,421.67,791.72,421.67z"/>
		</g>
	</g>
</g>
<g id="ojo_izq">
	<g>
		<path class="st6" d="M813.61,430.72c17.91-8.56,39.23-6.74,56.17,4.35c10.73,7.03,20.04,19.35,24.65,33.05
			c5.35,15.89,2.86,34.94-5.37,48.89c-8.23,13.96-21.7,22.81-35.72,25.02l0.07-0.11c-2.74,0.71-5.54,1.1-8.39,1.11
			c-13.79,0.04-32.15-1-43.37-10.69c-16.7-14.42-17.24-30.74-18.26-47.42C781.95,461.63,795.7,439.28,813.61,430.72z"/>
	</g>
</g>
<g id="pupila_izq">
	<g>
		<path class="st0" d="M824.52,453.11c10.97-5.09,24.02-4,34.39,2.59c6.57,4.18,12.27,11.5,15.09,19.64
			c3.28,9.44,1.75,20.76-3.29,29.05c-5.04,8.29-13.29,13.56-21.87,14.87l0.04-0.06c-1.68,0.42-3.39,0.65-5.14,0.66
			c-8.44,0.03-19.69-0.6-26.55-6.35c-10.23-8.57-10.55-18.26-11.18-28.18C805.14,471.47,813.55,458.19,824.52,453.11z"/>
	</g>
</g>
<g id="ojo_der">
	<g>
		<path class="st6" d="M988.35,432.19c17.91-8.56,39.23-6.74,56.17,4.35c10.73,7.03,20.04,19.35,24.65,33.05
			c5.35,15.89,2.86,34.94-5.37,48.89c-8.23,13.96-21.7,22.81-35.72,25.02l0.07-0.11c-2.74,0.71-5.54,1.1-8.39,1.11
			c-13.79,0.04-32.15-1-43.37-10.69c-16.7-14.42-17.24-30.74-18.26-47.42C956.69,463.1,970.44,440.75,988.35,432.19z"/>
	</g>
</g>
<g id="pupila_der">
	<g>
		<path class="st0" d="M994.18,454.04c10.97-5.09,24.02-4,34.39,2.59c6.57,4.18,12.27,11.5,15.09,19.64
			c3.28,9.44,1.75,20.76-3.29,29.05c-5.04,8.29-13.29,13.56-21.87,14.87l0.04-0.06c-1.68,0.42-3.39,0.65-5.14,0.66
			c-8.44,0.03-19.69-0.6-26.55-6.35c-10.23-8.57-10.55-18.26-11.18-28.18C974.8,472.41,983.22,459.12,994.18,454.04z"/>
	</g>
</g>
</svg>
