<svg xmlns="http://www.w3.org/2000/svg" xmlns:xlink="http://www.w3.org/1999/xlink" viewBox="0 0 300.86 359.44"><defs><style>.cls-1,.cls-10,.cls-4,.cls-7{fill:none;}.cls-2{fill:#231f20;}.cls-3{fill:#f7d1b2;}.cls-4,.cls-7{stroke:#231f20;}.cls-10,.cls-4,.cls-7{stroke-miterlimit:10;}.cls-4{stroke-width:1.78px;}.cls-5{fill:#e8b18b;}.cls-6{fill:#fff;}.cls-7{stroke-width:5.19px;}.cls-8{fill:#ff97ad;}.cls-9{clip-path:url(#clip-path);}.cls-10{stroke:#07080b;stroke-width:1.44px;}.cls-11,.cls-12{fill:#eabe9d;}.cls-11{opacity:0.5;}</style><clipPath id="clip-path"><path class="cls-1" d="M174.51,262c-11.11,0-22.22-3.63-33-10.89-7.3-4.91-10.12-16.47-6.28-25.82s12.87-13,20.18-8c13.05,8.77,25.22,8.77,38.28,0,7.3-4.91,16.34-1.3,20.17,8s1,20.91-6.28,25.82C196.74,258.37,185.63,262,174.51,262Z"/></clipPath></defs><g id="Capa_2" data-name="Capa 2"><g id="Capa_2-2" data-name="Capa 2"><path class="cls-2" d="M181.16,2.32S307.44-17.55,300.59,179.18s-123.84,179.9-123.84,179.9l5.17-292.51"/><path class="cls-3" d="M50.21,155.69c0-12.2,9.22-22.1,20.59-22.1s20.59,9.9,20.59,22.1c0,9.85-6,18.2-14.32,21,0,0,0-.11,0-.17a5.06,5.06,0,1,0-10.09,0,6,6,0,0,0,.07.85C57.47,175.52,50.21,166.52,50.21,155.69Z"/><path class="cls-3" d="M71.79,169.34a7.91,7.91,0,1,1-7.57,7.9A7.74,7.74,0,0,1,71.79,169.34Zm-.13,13.38a5.46,5.46,0,1,0-5.3-5.45A5.37,5.37,0,0,0,71.66,182.72Z"/><ellipse class="cls-4" cx="71.66" cy="177.27" rx="5.3" ry="5.45"/><ellipse class="cls-5" cx="70.8" cy="155.69" rx="10.81" ry="11.59"/><path class="cls-3" d="M174.73,299.18h0c54.76,0,92.27-47,92.27-104.23V130.58c0-57.23-37.51-103-92.27-103h0C120,27.56,75.56,74,75.56,131.19v64.37C75.56,252.79,120,299.18,174.73,299.18Z"/><path class="cls-6" d="M205.66,131.19a29.39,29.39,0,0,1,29.6,2.38c5.66,3.84,10.56,10.58,13,18.06a34.63,34.63,0,0,1-2.83,26.72A27.1,27.1,0,0,1,226.6,192l0-.06a16.89,16.89,0,0,1-4.42.61c-7.27,0-16.94-.55-22.86-5.84-8.8-7.88-9.08-16.8-9.62-25.92C189,148.09,196.22,135.87,205.66,131.19Z"/><path class="cls-2" d="M208.73,143.13a18.44,18.44,0,0,1,18.13,1.42,21.2,21.2,0,0,1,7.95,10.73,20.07,20.07,0,0,1-1.73,15.88,16.55,16.55,0,0,1-11.53,8.12l0,0a10.65,10.65,0,0,1-2.7.36c-4.45,0-10.38-.33-14-3.47-5.39-4.69-5.56-10-5.89-15.4C198.52,153.17,203,145.91,208.73,143.13Z"/><path class="cls-6" d="M113.57,130.39a29.36,29.36,0,0,1,29.6,2.38c5.66,3.84,10.56,10.57,13,18.06a34.64,34.64,0,0,1-2.83,26.72,27.08,27.08,0,0,1-18.82,13.68l0-.06a17.26,17.26,0,0,1-4.42.61c-7.27,0-16.94-.55-22.85-5.85-8.81-7.88-9.09-16.8-9.63-25.92C96.89,147.28,104.13,135.07,113.57,130.39Z"/><path class="cls-2" d="M119.32,142.62A18.46,18.46,0,0,1,137.45,144a21.2,21.2,0,0,1,8,10.73,20.07,20.07,0,0,1-1.73,15.88,16.55,16.55,0,0,1-11.53,8.12l0,0a10.65,10.65,0,0,1-2.7.36c-4.45,0-10.38-.33-14-3.47-5.39-4.69-5.56-10-5.89-15.4C109.11,152.66,113.54,145.4,119.32,142.62Z"/><ellipse class="cls-7" cx="174.26" cy="207.41" rx="7.93" ry="8.5"/><rect class="cls-8" x="162.12" y="155.69" width="25.21" height="51.69" rx="12.61" transform="translate(349.45 363.06) rotate(-180)"/><path class="cls-2" d="M175.12,0,93.19,103.79c-8.47,37-23.75,52.52-43,55.59v-21.3C50.21,63.39,75.49,0,175.12,0h0"/><path class="cls-2" d="M70.68,99.59C75.37,47.32,120.43,0,175.12,0h0c51.71,0,94.65,36.64,103.15,84.8.49,2.78,2.51,36.23,2.77,39.09C213.86,138.18,142.34,112.73,70.68,99.59Z"/><path class="cls-2" d="M244.78,126a4.93,4.93,0,0,0,3.06-1.08,6.28,6.28,0,0,0,1.27-8.17c-10.37-16.23-24.8-21.67-41.73-15.73a6,6,0,0,0-3.45,7.37,5.23,5.23,0,0,0,6.66,3.81c12.61-4.43,22.1-.83,29.86,11.32A5.18,5.18,0,0,0,244.78,126Z"/><path class="cls-2" d="M102,125.44a5.28,5.28,0,0,0,4.37-2.4c4.24-6.17,8.92-10.08,14.3-12s11.41-1.64,18.2.58a5.42,5.42,0,0,0,6.82-4.1A6.2,6.2,0,0,0,142,100c-18-5.87-33.29-.45-44.35,15.68a6.52,6.52,0,0,0,1,8.51A5.16,5.16,0,0,0,102,125.44Z"/><path class="cls-6" d="M174.51,262c-11.11,0-22.22-3.63-33-10.89-7.3-4.91-10.12-16.47-6.28-25.82s12.87-13,20.18-8c13.05,8.77,25.22,8.77,38.28,0,7.3-4.91,16.34-1.3,20.17,8s1,20.91-6.28,25.82C196.74,258.37,185.63,262,174.51,262Z"/><g class="cls-9"><path class="cls-10" d="M153.26,206c-2.55,1.37-22.3,71-22.3,71l26.56,3.65,9-68.75,12.78.73,10.49,72.11,25.43-5.46L193.73,206"/></g><ellipse class="cls-3" cx="124.99" cy="188.92" rx="13.1" ry="27.41" transform="translate(-78.48 288.48) rotate(-82.59)"/><ellipse class="cls-3" cx="217.33" cy="188.92" rx="26.48" ry="13.11" transform="translate(-13.84 17.21) rotate(-4.4)"/><rect class="cls-3" x="36.38" y="196.35" width="19.64" height="62.4" rx="9.82" transform="translate(-60.75 21.45) rotate(-15.95)"/><path class="cls-3" d="M72.91,225.5h0a8.34,8.34,0,0,1,8.34,8.34v34.35a0,0,0,0,1,0,0H64.57a0,0,0,0,1,0,0V233.84a8.34,8.34,0,0,1,8.34-8.34Z" transform="translate(-26.26 9.33) rotate(-6.21)"/><rect class="cls-3" x="12.12" y="205.73" width="19.64" height="62.4" rx="9.82" transform="translate(-130.45 54.19) rotate(-34.53)"/><path class="cls-3" d="M72.25,309.85,69.86,311c-11.25,5.16-28.69,6.78-37.1-3.06L27,301.5c-8.66-10.13-9.81-24.77-2.8-35.62l5.94-9.2L59.7,239.93l9.42,16.26L83,262.38C86,276,90.41,297.86,72.25,309.85Z"/><rect class="cls-11" x="18.69" y="248.59" width="19.64" height="42.6" rx="9.82" transform="translate(-190.85 110.09) rotate(-47.9)"/><rect class="cls-11" x="11.55" y="264.6" width="18.02" height="39.09" rx="9.01" transform="translate(-204.04 108.89) rotate(-47.9)"/><rect class="cls-3" x="16.52" y="247.64" width="19.64" height="42.6" rx="9.82" transform="translate(-190.86 108.16) rotate(-47.9)"/><path class="cls-12" d="M41.16,282.08c-.13,0-.27,0-.4-.06l-.36-.1c-.4-.09-.8-.16-1.19-.26s-.93-.31-1.4-.46l-.56-.18c-.93-.31-1.84-.65-2.75-1l-.1,0-.12-.05c-.46-.2-.94-.38-1.4-.59s-.9-.45-1.36-.67L31,278.4c-.85-.43-1.69-.89-2.52-1.37-.1-.06-.2-.1-.29-.16l-.23-.15c-.36-.21-.73-.41-1.09-.64s-.78-.55-1.18-.82l-.57-.4c-.71-.5-1.39-1-2.06-1.58-.12-.1-.25-.18-.36-.28l-.5-.44c-.22-.19-.45-.36-.67-.56a34.92,34.92,0,0,1-2.52-2.64c-.88-1-1.73-2-2.57-3s-1.6-2-2.38-3c-.4-.51-.79-1-1.18-1.54s-.81-1-1.15-1.56c-.84-1.32-1.57-2.71-2.42-4a9.83,9.83,0,0,0,1.88,12.26l17,15.39a9.82,9.82,0,0,0,13.87-.7c.24-.27.41-.56.62-.84C42.22,282.3,41.69,282.19,41.16,282.08Z"/><rect class="cls-3" x="9.37" y="263.65" width="18.02" height="39.09" rx="9.01" transform="matrix(0.67, -0.74, 0.74, 0.67, -204.06, 106.96)"/><path class="cls-12" d="M31.79,297c-.43-.15-.84-.35-1.26-.52l-.6-.25q-1.26-.54-2.49-1.17l-.09,0-.11-.06c-.46-.24-.94-.47-1.39-.72s-.94-.55-1.41-.83l-.44-.26c-.88-.53-1.75-1.07-2.6-1.65l-.23-.14-.23-.17c-.42-.28-.85-.56-1.26-.85s-.61-.49-.92-.73-.76-.58-1.13-.88c-.58-.47-1.16-.94-1.72-1.42l-.43-.37-.62-.55-.7-.61q-2-1.79-3.9-3.61l-.11-.11-.18-.18c-.38-.37-.77-.72-1.14-1.1a31.3,31.3,0,0,1-4.43-5.51A27,27,0,0,1,2.82,272l-.12-.27a9,9,0,0,0,1.82,11.05l15.64,14.12a9,9,0,0,0,11.86.14Z"/><circle class="cls-3" cx="65.04" cy="268.12" r="18.84"/></g></g></svg>