<svg xmlns="http://www.w3.org/2000/svg" xmlns:xlink="http://www.w3.org/1999/xlink" viewBox="0 0 681.84 808.87"><defs><style>.cls-1,.cls-10,.cls-4,.cls-7{fill:none;}.cls-2{fill:#231f20;}.cls-3{fill:#f7d1b2;}.cls-4,.cls-7{stroke:#231f20;}.cls-10,.cls-4,.cls-7{stroke-miterlimit:10;}.cls-4{stroke-width:1.78px;}.cls-5{fill:#e8b18b;}.cls-6{fill:#fff;}.cls-7{stroke-width:5.19px;}.cls-8{fill:#ff97ad;}.cls-9{clip-path:url(#clip-path);}.cls-10{stroke:#07080b;stroke-width:1.44px;}.cls-11,.cls-12{fill:#eabe9d;}.cls-11{opacity:0.5;}</style><clipPath id="clip-path"><path class="cls-1" d="M397.52,589.6c-25,0-50-8.17-74.34-24.5C306.74,554.05,300.4,528,309,507s29-29.15,45.41-18.11c29.38,19.74,56.75,19.74,86.14,0,16.45-11,36.78-2.93,45.41,18.11s2.3,47.07-14.15,58.12C447.54,581.43,422.52,589.6,397.52,589.6Z"/></clipPath></defs><g id="Capa_2" data-name="Capa 2"><g id="Capa_2-2" data-name="Capa 2"><path class="cls-2" d="M412.47,5.22s284.17-44.72,268.76,398S402.55,808.06,402.55,808.06l11.63-658.25"/><path class="cls-3" d="M117.78,350.35c0-27.45,20.75-49.71,46.34-49.71s46.33,22.26,46.33,49.71c0,22.18-13.53,41-32.22,47.36,0-.12,0-.25,0-.38,0-6.72-5.08-12.18-11.35-12.18s-11.36,5.46-11.36,12.18a12.1,12.1,0,0,0,.16,1.91C134.13,395,117.78,374.72,117.78,350.35Z"/><path class="cls-3" d="M166.35,381.09c9.41,0,17,8,17,17.77s-7.63,17.77-17,17.77-17-8-17-17.77S156.94,381.09,166.35,381.09Zm-.3,30.11a12.28,12.28,0,1,0-11.93-12.28A12.12,12.12,0,0,0,166.05,411.2Z"/><ellipse class="cls-4" cx="166.05" cy="398.92" rx="11.93" ry="12.28"/><ellipse class="cls-5" cx="164.12" cy="350.35" rx="24.32" ry="26.09"/><path class="cls-3" d="M398,673.27h0c123.25,0,207.65-105.77,207.65-234.56V293.86C605.64,165.06,521.24,62,398,62h0c-123.25,0-223.16,104.4-223.16,233.19V440.07C174.83,568.86,274.74,673.27,398,673.27Z"/><path class="cls-6" d="M467.6,295.23c21.24-10.52,46.53-8.28,66.62,5.36,12.73,8.64,23.76,23.79,29.23,40.64,6.35,19.54,3.39,43-6.37,60.13s-25.73,28.06-42.36,30.78l.08-.13a38.83,38.83,0,0,1-9.95,1.37c-16.36.05-38.13-1.24-51.44-13.15-19.8-17.74-20.44-37.81-21.65-58.33C430.06,333.25,446.36,305.76,467.6,295.23Z"/><path class="cls-2" d="M474.52,322.1a41.54,41.54,0,0,1,40.79,3.18c7.79,5.14,14.55,14.14,17.9,24.15,3.88,11.61,2.07,25.54-3.9,35.74a37.28,37.28,0,0,1-25.94,18.28l.05-.07a25,25,0,0,1-6.1.81c-10,0-23.34-.74-31.49-7.82-12.13-10.54-12.52-22.46-13.26-34.65C451.53,344.69,461.51,328.36,474.52,322.1Z"/><path class="cls-6" d="M260.37,293.43c21.24-10.53,46.53-8.29,66.62,5.35,12.73,8.64,23.76,23.79,29.23,40.64,6.35,19.54,3.39,43-6.37,60.14s-25.73,28.05-42.36,30.77l.08-.13a38.83,38.83,0,0,1-9.95,1.37c-16.36.05-38.13-1.24-51.44-13.15-19.8-17.74-20.44-37.81-21.65-58.33C222.83,331.44,239.13,304,260.37,293.43Z"/><path class="cls-2" d="M273.31,321a41.49,41.49,0,0,1,40.79,3.18c7.8,5.13,14.55,14.14,17.9,24.15,3.89,11.61,2.08,25.53-3.9,35.73a37.29,37.29,0,0,1-25.94,18.29l0-.08a25,25,0,0,1-6.09.81c-10,0-23.35-.73-31.49-7.81-12.13-10.54-12.52-22.47-13.27-34.66C250.33,343.55,260.31,327.21,273.31,321Z"/><ellipse class="cls-7" cx="396.95" cy="466.76" rx="17.83" ry="19.14"/><rect class="cls-8" x="369.63" y="350.35" width="56.73" height="116.32" rx="12.61" transform="translate(795.99 817.03) rotate(-180)"/><path class="cls-2" d="M398.89,0,214.52,233.56c-19.08,83.27-53.47,118.2-96.74,125.11V310.73C117.78,142.64,174.67,0,398.89,0h0"/><path class="cls-2" d="M163.85,224.11C174.4,106.49,275.81,0,398.89,0h0C515.24,0,611.87,82.45,631,190.82c1.11,6.27,5.64,81.54,6.22,88C486.06,311,325.11,253.69,163.85,224.11Z"/><path class="cls-2" d="M555.65,283.61a11.12,11.12,0,0,0,6.87-2.42c5.38-4.21,6.66-12.44,2.85-18.39C542,226.27,509.57,214,471.48,227.41c-6.28,2.2-9.75,9.62-7.76,16.56s8.7,10.79,15,8.59c28.39-10,49.75-1.88,67.22,25.47A11.58,11.58,0,0,0,555.65,283.61Z"/><path class="cls-2" d="M234.42,282.3a12,12,0,0,0,9.85-5.41c9.53-13.9,20-22.7,32.18-26.9,11.89-4.13,25.67-3.68,40.95,1.31,6.54,2.15,13.41-2,15.35-9.23s-1.81-14.84-8.35-17c-40.41-13.22-74.92-1-99.81,35.27-4.12,6-3.06,14.59,2.37,19.15A11.53,11.53,0,0,0,234.42,282.3Z"/><path class="cls-6" d="M397.52,589.6c-25,0-50-8.17-74.34-24.5C306.74,554.05,300.4,528,309,507s29-29.15,45.41-18.11c29.38,19.74,56.75,19.74,86.14,0,16.45-11,36.78-2.93,45.41,18.11s2.3,47.07-14.15,58.12C447.54,581.43,422.52,589.6,397.52,589.6Z"/><g class="cls-9"><path class="cls-10" d="M349.69,463.6c-5.74,3.08-50.2,159.83-50.2,159.83l59.78,8.2,20.31-154.71,28.74,1.63,23.62,162.3,57.23-12.3L440.76,463.6"/></g><ellipse class="cls-3" cx="286.06" cy="425.13" rx="29.49" ry="61.69" transform="translate(-172.42 653.95) rotate(-82.59)"/><ellipse class="cls-3" cx="493.88" cy="425.13" rx="59.6" ry="29.5" transform="translate(-31.13 39.1) rotate(-4.4)"/><rect class="cls-3" x="86.66" y="441.87" width="44.2" height="140.43" rx="9.82" transform="matrix(0.96, -0.27, 0.27, 0.96, -136.52, 49.59)"/><path class="cls-3" d="M158.44,507.45h20.86a8.34,8.34,0,0,1,8.34,8.34v87.72a0,0,0,0,1,0,0H150.1a0,0,0,0,1,0,0V515.79a8.34,8.34,0,0,1,8.34-8.34Z" transform="translate(-59.06 21.51) rotate(-6.21)"/><rect class="cls-3" x="32.08" y="462.98" width="44.2" height="140.43" rx="9.82" transform="translate(-292.71 124.66) rotate(-34.53)"/><path class="cls-3" d="M167.38,697.28,162,699.75c-25.32,11.61-64.57,15.25-83.5-6.88l-13-14.39C46,655.69,43.41,622.75,59.19,598.33l13.37-20.7,66.59-37.7,21.2,36.59,31.2,13.93C198.4,621.1,208.25,670.29,167.38,697.28Z"/><rect class="cls-11" x="46.86" y="559.42" width="44.2" height="95.87" rx="9.82" transform="translate(-427.89 251.3) rotate(-47.9)"/><rect class="cls-11" x="30.78" y="595.45" width="40.56" height="87.97" rx="9.01" transform="translate(-457.59 248.6) rotate(-47.9)"/><rect class="cls-3" x="41.96" y="557.28" width="44.2" height="95.87" rx="9.82" transform="translate(-427.92 246.96) rotate(-47.9)"/><path class="cls-12" d="M97.42,634.79c-.3-.06-.6-.08-.9-.15s-.54-.16-.81-.22c-.9-.2-1.8-.35-2.68-.58-1.06-.29-2.09-.69-3.14-1l-1.26-.41c-2.09-.71-4.15-1.47-6.19-2.32a2.34,2.34,0,0,0-.24-.09l-.25-.12c-1-.45-2.12-.85-3.16-1.32s-2-1-3.06-1.51l-1.08-.54Q71.77,625,69,623.42c-.22-.13-.45-.23-.66-.36s-.34-.23-.51-.33c-.81-.49-1.65-.93-2.45-1.44s-1.77-1.24-2.66-1.86l-1.29-.89c-1.59-1.14-3.13-2.33-4.64-3.57-.26-.21-.55-.4-.81-.62s-.74-.66-1.12-1-1-.81-1.5-1.26a81.53,81.53,0,0,1-5.68-5.93q-3-3.31-5.78-6.74t-5.36-6.7q-1.34-1.72-2.66-3.48c-.87-1.15-1.8-2.29-2.58-3.51-1.88-3-3.54-6.09-5.45-9a22.1,22.1,0,0,0,4.24,27.58l38.34,34.65a22.1,22.1,0,0,0,31.21-1.58,22.6,22.6,0,0,0,1.4-1.9C99.81,635.27,98.62,635,97.42,634.79Z"/><rect class="cls-3" x="25.88" y="593.31" width="40.56" height="87.97" rx="9.01" transform="translate(-457.62 244.26) rotate(-47.9)"/><path class="cls-12" d="M76.33,668.38c-1-.34-1.88-.78-2.82-1.17l-1.35-.56c-1.9-.82-3.78-1.68-5.62-2.63l-.19-.09a2,2,0,0,1-.25-.14c-1-.54-2.11-1-3.14-1.62s-2.11-1.24-3.16-1.86l-1-.59c-2-1.19-3.92-2.42-5.84-3.71-.17-.11-.35-.21-.52-.33s-.34-.25-.51-.36c-1-.65-1.92-1.26-2.85-1.94-.72-.51-1.38-1.09-2.08-1.62-.86-.65-1.7-1.32-2.54-2-1.3-1-2.59-2.11-3.86-3.2-.32-.29-.66-.54-1-.82l-1.38-1.25-1.58-1.37c-3-2.67-5.9-5.36-8.77-8.12l-.26-.24-.4-.4c-.86-.84-1.74-1.64-2.57-2.49a69.93,69.93,0,0,1-9.95-12.4,61.46,61.46,0,0,1-3.57-7.29l-.27-.61A20.26,20.26,0,0,0,15,636.44l35.18,31.79a20.22,20.22,0,0,0,26.7.31C76.68,668.48,76.5,668.45,76.33,668.38Z"/><circle class="cls-3" cx="151.17" cy="603.37" r="42.4"/></g></g></svg>